# xmcd
#
# Track frame offsets: 
#        150
#        16927
#        37005
#        55843
#        74717
#
# Disc length: 1259 seconds
#
# Revision: 0
# Processed by: cddbd v1.5.2PL0 Copyright (c) Steve Scherf et al.
# Submitted via: ExactAudioCopy v0.95b2
#
DISCID=4204e905
DTITLE=The hardcore bluesband - Chickenhouse - 20 Jahre
DYEAR=2009
DGENRE=Blues
TTITLE0=Back to the Wäck
TTITLE1=Triple X
TTITLE2=Texas Blues
TTITLE3=See My Light Come Shine
TTITLE4=Hold On To Love
EXTD=
EXTT0=
EXTT1=
EXTT2=
EXTT3=
EXTT4=
PLAYORDER=
